<svg viewBox="0 0 303 235" fill="none" xmlns="http://www.w3.org/2000/svg">
    <path
        d="M300.365 126.177C283.365 44.1771 202.312 9.17709 206.365 12.1771C210.417 15.1771 258.365 138.677 248.865 129.677C239.365 120.677 211.865 101.177 176.865 120.677C153.967 133.434 142.934 174.838 154.865 198.177C164.066 216.177 184.464 230.391 211.865 234.177C231.365 236.872 259.339 231.317 278.865 212.677C302.641 189.979 306.271 154.666 300.365 126.177Z"
        fill="#D1FAE5" />
    <path
        d="M138.679 106.072C122.833 29.8929 47.2818 -2.62252 51.0593 0.16451C54.8367 2.95154 99.5299 117.685 90.6747 109.323C81.8195 100.962 56.186 82.8466 23.5615 100.962C2.21796 112.814 -6.21156 150.185 4.90941 171.867C13.4863 188.589 30.645 202.888 56.186 206.405C74.3625 208.908 100.438 203.748 118.639 186.431C140.801 165.345 144.185 132.538 138.679 106.072Z"
        fill="#D1FAE5" />
</svg>