<svg fill="none" xmlns="http://www.w3.org/2000/svg" viewBox="0 0 303 235">
    <path
        d="M2.49 114.177c17-82 98.052-117 94-114-4.053 3-52 126.5-42.5 117.5s37-28.5 72-9c22.897 12.757 33.931 54.161 22 77.5-9.202 18-29.599 32.214-57 36-19.5 2.695-47.475-2.86-67-21.5-23.777-22.698-27.407-58.011-21.5-86.5zM164.31 133.749c15.847-76.179 91.398-108.694 87.62-105.907-3.777 2.787-48.47 117.52-39.615 109.159 8.855-8.362 34.489-26.477 67.113-8.362 21.344 11.852 29.773 49.223 18.652 70.905-8.577 16.722-25.735 31.021-51.276 34.538-18.177 2.503-44.252-2.657-62.453-19.974-22.163-21.086-25.546-53.893-20.041-80.359z"
        fill="#D1FAE5" />
</svg>